HIERARCHY
ROOT hip
{
  OFFSET 0 0 0
  CHANNELS 6 Xposition Yposition Zposition Zrotation Yrotation Xrotation
  JOINT abdomen
  {
    OFFSET 0 20.6881 -0.73152
    CHANNELS 3 Zrotation Xrotation Yrotation
    JOINT chest
    {
      OFFSET 0 11.7043 -0.48768
      CHANNELS 3 Zrotation Xrotation Yrotation
      JOINT neck
      {
        OFFSET 0 22.1894 -2.19456
        CHANNELS 3 Zrotation Xrotation Yrotation
        JOINT head
        {
          OFFSET -0.24384 7.07133 1.2192
          CHANNELS 3 Zrotation Xrotation Yrotation
          JOINT leftEye
          {
            OFFSET 4.14528 8.04674 8.04672
            CHANNELS 3 Zrotation Xrotation Yrotation
            End Site
            {
              OFFSET 1 0 0
            }
          }
          JOINT rightEye
          {
            OFFSET -3.6576 8.04674 8.04672
            CHANNELS 3 Zrotation Xrotation Yrotation
            End Site
            {
              OFFSET 1 0 0
            }
          }
        }
      }
      JOINT rCollar
      {
        OFFSET -2.68224 19.2634 -4.8768
        CHANNELS 3 Zrotation Xrotation Yrotation
        JOINT rShldr
        {
          OFFSET -8.77824 -1.95073 1.46304
          CHANNELS 3 Zrotation Xrotation Yrotation
          JOINT rForeArm
          {
            OFFSET -28.1742 -1.7115 0.48768
            CHANNELS 3 Zrotation Xrotation Yrotation
            JOINT rHand
            {
              OFFSET -22.5879 0.773209 7.07136
              CHANNELS 3 Zrotation Xrotation Yrotation
              JOINT rThumb1
              {
                OFFSET -1.2192 -0.487915 3.41376
                CHANNELS 3 Zrotation Xrotation Yrotation
                JOINT rThumb2
                {
                  OFFSET -3.37035 -0.52449 3.41376
                  CHANNELS 3 Zrotation Xrotation Yrotation
                  End Site
                  {
                    OFFSET -1.78271 -1.18214 1.43049
                  }
                }
              }
              JOINT rIndex1
              {
                OFFSET -7.75947 0.938293 5.60832
                CHANNELS 3 Zrotation Xrotation Yrotation
                JOINT rIndex2
                {
                  OFFSET -2.54057 -0.884171 1.56538
                  CHANNELS 3 Zrotation Xrotation Yrotation
                  End Site
                  {
                    OFFSET -1.62519 -0.234802 1.16502
                  }
                }
              }
              JOINT rMid1
              {
                OFFSET -8.24714 1.18213 3.41376
                CHANNELS 3 Zrotation Xrotation Yrotation
                JOINT rMid2
                {
                  OFFSET -3.10165 -0.590103 1.0647
                  CHANNELS 3 Zrotation Xrotation Yrotation
                  End Site
                  {
                    OFFSET -2.48547 -0.328903 0.83742
                  }
                }
              }
              JOINT rRing1
              {
                OFFSET -8.82822 0.546677 1.51678
                CHANNELS 3 Zrotation Xrotation Yrotation
                JOINT rRing2
                {
                  OFFSET -2.60934 -0.819778 -0.0198488
                  CHANNELS 3 Zrotation Xrotation Yrotation
                  End Site
                  {
                    OFFSET -2.33842 -0.294052 0.168128
                  }
                }
              }
              JOINT rPinky1
              {
                OFFSET -8.27202 -0.0477905 -0.4584
                CHANNELS 3 Zrotation Xrotation Yrotation
                JOINT rPinky2
                {
                  OFFSET -1.82734 -0.647385 -0.700984
                  CHANNELS 3 Zrotation Xrotation Yrotation
                  End Site
                  {
                    OFFSET -1.69225 -0.51767 -0.607171
                  }
                }
              }
            }
          }
        }
      }
      JOINT lCollar
      {
        OFFSET 2.68224 19.2634 -4.8768
        CHANNELS 3 Zrotation Xrotation Yrotation
        JOINT lShldr
        {
          OFFSET 8.77824 -1.95073 1.46304
          CHANNELS 3 Zrotation Xrotation Yrotation
          JOINT lForeArm
          {
            OFFSET 28.1742 -1.7115 0.48768
            CHANNELS 3 Zrotation Xrotation Yrotation
            JOINT lHand
            {
              OFFSET 22.5879 0.773209 7.07136
              CHANNELS 3 Zrotation Xrotation Yrotation
              JOINT lThumb1
              {
                OFFSET 1.2192 -0.487915 3.41376
                CHANNELS 3 Zrotation Xrotation Yrotation
                JOINT lThumb2
                {
                  OFFSET 3.37035 -0.52449 3.41376
                  CHANNELS 3 Zrotation Xrotation Yrotation
                  End Site
                  {
                    OFFSET 1.78271 -1.18214 1.43049
                  }
                }
              }
              JOINT lIndex1
              {
                OFFSET 7.75947 0.938293 5.60832
                CHANNELS 3 Zrotation Xrotation Yrotation
                JOINT lIndex2
                {
                  OFFSET 2.54057 -0.884171 1.56538
                  CHANNELS 3 Zrotation Xrotation Yrotation
                  End Site
                  {
                    OFFSET 1.62519 -0.234802 1.16502
                  }
                }
              }
              JOINT lMid1
              {
                OFFSET 8.24714 1.18213 3.41376
                CHANNELS 3 Zrotation Xrotation Yrotation
                JOINT lMid2
                {
                  OFFSET 3.10165 -0.590103 1.0647
                  CHANNELS 3 Zrotation Xrotation Yrotation
                  End Site
                  {
                    OFFSET 2.48547 -0.328903 0.83742
                  }
                }
              }
              JOINT lRing1
              {
                OFFSET 8.82822 0.546677 1.51678
                CHANNELS 3 Zrotation Xrotation Yrotation
                JOINT lRing2
                {
                  OFFSET 2.60934 -0.819778 -0.0198488
                  CHANNELS 3 Zrotation Xrotation Yrotation
                  End Site
                  {
                    OFFSET 2.33842 -0.294052 0.168128
                  }
                }
              }
              JOINT lPinky1
              {
                OFFSET 8.27202 -0.0477905 -0.4584
                CHANNELS 3 Zrotation Xrotation Yrotation
                JOINT lPinky2
                {
                  OFFSET 1.82734 -0.647385 -0.700984
                  CHANNELS 3 Zrotation Xrotation Yrotation
                  End Site
                  {
                    OFFSET 1.69225 -0.51767 -0.607171
                  }
                }
              }
            }
          }
        }
      }
    }
  }
  JOINT rButtock
  {
    OFFSET -8.77824 4.35084 1.2192
    CHANNELS 3 Zrotation Xrotation Yrotation
    JOINT rThigh
    {
      OFFSET 0 -1.70687 -2.19456
      CHANNELS 3 Zrotation Xrotation Yrotation
      JOINT rShin
      {
        OFFSET 0 -36.8199 0.73152
        CHANNELS 3 Zrotation Xrotation Yrotation
        JOINT rFoot
        {
          OFFSET 0.73152 -45.1104 -5.12064
          CHANNELS 3 Zrotation Xrotation Yrotation
          End Site
          {
            OFFSET -1.1221 -3.69964 12.103
          }
        }
      }
    }
  }
  JOINT lButtock
  {
    OFFSET 8.77824 4.35084 1.2192
    CHANNELS 3 Zrotation Xrotation Yrotation
    JOINT lThigh
    {
      OFFSET 0 -1.70687 -2.19456
      CHANNELS 3 Zrotation Xrotation Yrotation
      JOINT lShin
      {
        OFFSET 0 -36.8199 0.73152
        CHANNELS 3 Zrotation Xrotation Yrotation
        JOINT lFoot
        {
          OFFSET -0.73152 -45.1104 -5.12064
          CHANNELS 3 Zrotation Xrotation Yrotation
          End Site
          {
            OFFSET 1.1221 -3.69964 12.103
          }
        }
      }
    }
  }
}
MOTION
Frames:	9
Frame Time:	0.00833333
-0.0616311 80.1611 40.5901 -0.0 -0.0 -0.0 -0.0 0.0 -0.0 0.0 -0.0 -0.0 -7.878099 7.630765 -65.547208 10.189972 4.032556 65.713733 0.0 -0.0 -0.0 0.0 -0.0 -0.0 -142.973735 39.431617 147.390037 18.812347 16.03942 8.544772 3.516196 8.516581 -33.565431 168.954055 -21.177869 143.162356 -2.813987 2.754169 0.498244 -55.239318 27.685746 51.124899 174.382035 -63.05997 113.272685 -59.602002 49.578542 54.808158 6.533059 -20.414937 -2.717988 -85.239253 63.201938 74.16393 -0.014868 -1.323148 -0.415899 1.502429 -44.475106 -5.063336 26.973563 80.122588 10.137824 -81.556697 -51.240958 -79.812572 142.973735 39.431617 -147.390037 -21.143811 1.283524 -7.278457 -128.612371 68.436114 149.506862 159.984058 54.124006 -134.930176 -71.831195 -48.263725 -25.791675 136.009976 15.278637 -104.196917 46.208543 39.652969 -36.318179 167.728808 -8.910811 -120.241869 -7.904304 -24.807577 3.013399 177.149848 -34.286312 -142.189321 145.121954 1.975391 179.748922 -22.29352 29.101274 6.124756 146.528561 16.475045 143.010696 23.810032 -40.465008 27.58397 -0.0 0.0 -0.0 -0.0 -0.0 -0.0 7.397073 5.294191 87.407088 -5.764178 27.058788 -81.231577 -0.0 0.0 -0.0 -0.0 -0.0 -0.0 -7.507689 6.266531 -95.937971 63.789946 85.973743 11.073513
1.59765 80.924 40.5066 -0.0 -0.0 -0.0 -0.0 0.0 -0.0 0.0 -0.0 -0.0 -7.18087 5.633523 -53.581742 8.784862 2.451204 53.7472 0.0 -0.0 -0.0 0.0 -0.0 -0.0 -142.973735 39.431617 147.390037 -151.980852 -2.335175 170.955575 78.446302 -70.61328 49.91037 -165.020016 47.552031 138.60362 -176.533161 -14.149652 89.697164 7.366133 -60.637139 8.986102 -33.797169 34.48579 25.494234 -60.934846 54.617266 35.379346 34.587821 -70.943799 9.314143 -162.17279 0.792813 139.520626 -114.669357 66.731663 135.092548 -79.052682 -71.255483 -99.060316 9.599878 31.055827 8.342915 -129.06399 -30.355471 -124.147798 142.973735 39.431617 -147.390037 -18.812347 16.03942 -8.544772 -3.155762 7.282599 33.473924 -168.49089 -22.388323 -142.948502 -6.463714 -6.452652 0.634888 138.534625 -41.111261 -122.429792 46.208543 39.652969 -36.318179 0.851338 5.144149 9.89838 0.571049 1.648356 -0.322148 176.333359 -34.265715 -143.982383 0.014868 -1.323148 0.415899 77.193154 -87.164215 88.555616 1.178169 -2.985265 1.092498 82.364168 -54.694839 79.557868 -0.0 0.0 -0.0 -0.0 -0.0 -0.0 7.397073 5.294191 87.407088 -5.764178 27.058788 -81.231577 -0.0 0.0 -0.0 -0.0 -0.0 -0.0 -7.507689 6.266531 -95.937971 63.789946 85.973743 11.073513
3.3436800000000004 81.7519 40.4342 -0.0 -0.0 -0.0 -0.0 0.0 -0.0 0.0 -0.0 -0.0 -8.133567 10.422116 -81.502261 11.496437 6.51512 81.58876 0.0 -0.0 -0.0 0.0 -0.0 -0.0 -152.135386 14.0844 157.564787 16.399999 15.624006 14.42284 77.37537 71.253172 -88.140959 -126.64509 71.397142 105.531196 6.463714 -6.452652 -0.634888 -155.081441 -70.626933 124.562407 -14.228542 19.203392 9.559881 -66.203743 50.988462 39.879435 0.541241 -1.589941 -0.294737 -5.620327 15.246254 2.891998 -145.121954 1.975391 -179.748922 -143.962279 -11.936295 -177.207387 -145.173549 12.06758 -141.82295 -22.044656 -39.470116 -25.924653 149.905153 22.421731 -154.975223 -20.664338 1.899985 -11.208878 -176.031314 8.10188 -179.031239 12.543474 35.823882 -2.791666 85.829417 38.630721 -47.955432 -33.359334 -32.664341 -21.40839 151.353117 -17.158427 -121.133109 0.218795 36.185996 -1.205518 160.937898 -7.488186 -143.367502 169.253242 -31.872246 -143.651466 -0.004875 1.770451 -0.556181 0.153378 0.269496 0.301918 26.564207 -38.860901 25.60587 158.25005 55.128966 152.562948 -0.0 0.0 -0.0 -0.0 -0.0 -0.0 7.397073 5.294191 87.407088 -5.764178 27.058788 -81.231577 -0.0 0.0 -0.0 -0.0 -0.0 -0.0 -7.507689 6.266531 -95.937971 63.789946 85.973743 11.073513
5.09713 82.4559 40.3857 -0.0 -0.0 -0.0 -0.0 0.0 -0.0 0.0 -0.0 -0.0 11.917935 8.05281 90.608235 -7.925217 12.00247 -90.615698 -0.0 0.0 -0.0 -0.0 0.0 -0.0 -142.973735 39.431617 147.390037 21.143811 1.283524 7.278457 2.390817 20.691971 -33.122663 167.89726 -23.903594 142.662521 -10.48169 9.910501 2.492634 110.72418 -78.59272 36.810232 159.641557 -69.973343 102.396332 94.874315 -59.051283 33.815093 23.903801 -61.333833 1.399383 -165.093866 -5.213192 140.45997 -72.757246 -72.143382 -89.772159 76.676064 -86.710247 50.861021 -143.937873 8.265083 -140.720099 -42.368554 -49.787937 -45.440158 142.973735 39.431617 -147.390037 151.980852 -2.335175 -170.955575 -11.412418 9.227559 1.498477 13.289973 37.43742 -3.180886 169.583554 -7.265394 -89.9299 -18.181414 -60.733089 -18.306088 28.901256 31.616227 -21.337761 170.796581 -11.328414 -117.517597 0.571049 1.648356 -0.322148 159.009052 16.123778 -139.85095 145.119466 0.267753 179.212454 141.320359 -28.901984 174.462982 -31.497272 83.083168 -6.663937 -0.38706 -1.653831 3.982606 -0.0 0.0 -0.0 -0.0 -0.0 -0.0 7.397073 5.294191 87.407088 -5.774708 27.212116 -81.180018 -0.0 0.0 -0.0 -0.0 -0.0 -0.0 -7.507689 6.266531 -95.937971 63.789946 85.973743 11.073513
6.87051 83.046 40.3289 -0.0 -0.0 -0.0 -0.0 0.0 -0.0 0.0 -0.0 -0.0 -3.913017 1.703036 -24.406518 4.266476 0.068629 24.462143 0.0 -0.0 -0.0 0.0 -0.0 -0.0 -143.620413 38.233348 148.080496 -152.003497 -2.605773 170.689436 -172.662935 -8.13459 145.954594 163.122507 -34.602105 139.941859 0.567845 -0.561452 -0.084526 -122.865028 -13.901899 110.409024 -50.386399 40.826202 40.02487 -12.355656 26.750984 -4.156637 23.903801 -61.333833 1.399383 -162.225029 2.120239 139.548632 -145.121957 1.974539 -179.748654 -143.081043 -18.457762 -176.150393 -5.514624 -12.596526 -5.174679 -25.647864 -41.412775 -24.010719 80.1661 68.371792 -83.260848 -16.926784 14.142456 0.162407 178.520015 -67.391937 -177.512166 3.445738 10.991566 0.045734 164.698424 -2.371915 -89.58543 148.584 2.497971 -74.795079 153.453439 -21.067684 -121.744506 161.749785 -37.555894 -117.83211 -9.417448 -29.555259 3.210086 -138.898626 -73.231193 -109.756857 74.840941 72.961123 -92.827929 143.224927 -48.277196 159.117923 145.543006 13.244722 142.14923 153.095179 36.791055 145.97984 -0.0 0.0 -0.0 -0.0 -0.0 -0.0 7.397073 5.294191 87.407088 -6.586138 -4.978777 -91.097551 -0.0 0.0 -0.0 -0.0 -0.0 -0.0 -7.507689 6.266531 -95.937971 63.789946 85.973743 11.073513
8.61506 83.5741 40.2482 -0.0 -0.0 -0.0 -0.0 0.0 -0.0 0.0 -0.0 -0.0 -7.18087 5.633523 -53.581742 8.784862 2.451204 53.7472 0.0 -0.0 -0.0 0.0 -0.0 -0.0 -142.973735 39.431617 147.390037 -151.980852 -2.335175 170.955575 11.412418 9.227559 -1.498477 -13.289973 37.43742 3.180886 -178.51928 -16.064275 89.475724 -9.624525 -51.670161 0.704843 -27.608968 30.765951 20.255213 -69.772454 54.752534 42.981052 23.903801 -61.333833 1.399383 -21.709801 40.836685 17.781579 -114.669357 66.731663 135.092548 -19.412826 -58.649878 -40.479057 -8.191002 -17.575975 -7.729117 -155.908978 37.643986 -149.431176 142.973735 39.431617 -147.390037 -21.143811 1.283524 -7.278457 -128.612371 68.436114 149.506862 159.984058 54.124006 -134.930176 2.608268 2.55464 -0.457401 132.084851 -31.329023 -115.224762 33.797169 34.48579 -25.494234 -0.365471 0.011045 8.774183 169.08961 -33.247392 -145.374931 0.042583 14.961642 -4.556773 74.840941 72.961123 -92.827929 79.287789 -72.109616 96.400729 -0.098846 0.258289 -0.091255 -44.217312 83.870995 9.183012 -0.0 0.0 -0.0 -0.0 -0.0 -0.0 7.397073 5.294191 87.407088 -7.625303 -12.629408 -93.610193 -0.0 0.0 -0.0 -0.0 -0.0 -0.0 -7.507689 6.266531 -95.937971 63.789946 85.973743 11.073513
10.3309 84.0218 40.0886 -0.0 -0.0 -0.0 -0.0 0.0 -0.0 0.0 -0.0 -0.0 -7.18087 5.633523 -53.581742 8.784862 2.451204 53.7472 0.0 -0.0 -0.0 0.0 -0.0 -0.0 -142.973735 39.431617 147.390037 -151.980852 -2.335175 170.955575 11.412418 9.227559 -1.498477 -13.289973 37.43742 3.180886 -178.51928 -16.064275 89.475724 -9.624525 -51.670161 0.704843 -27.608968 30.765951 20.255213 -69.772454 54.752534 42.981052 23.903801 -61.333833 1.399383 -21.709801 40.836685 17.781579 -145.118942 0.185466 -179.186604 22.491753 39.867282 -4.519515 -8.191002 -17.575975 -7.729117 -155.908978 37.643986 -149.431176 142.973735 39.431617 -147.390037 -21.143811 1.283524 -7.278457 -128.612371 68.436114 149.506862 159.984058 54.124006 -134.930176 -176.505527 -20.695006 -88.628526 -54.843233 -74.15566 -40.241225 11.063308 15.60616 -7.220017 -0.272184 -1.836907 3.753504 167.375306 -28.008469 -145.269175 86.689489 62.511936 -81.239721 -0.000171 0.022623 -0.007107 -0.000551 -0.032723 0.008377 -0.098846 0.258289 -0.091255 -63.202151 86.030393 27.320517 -0.0 0.0 -0.0 -0.0 -0.0 -0.0 7.397073 5.294191 87.407088 -7.625303 -12.629408 -93.610193 -0.0 0.0 -0.0 -0.0 -0.0 -0.0 -7.507689 6.266531 -95.937971 63.789946 85.973743 11.073513
11.9587 84.3477 39.8756 -0.0 -0.0 -0.0 -0.0 0.0 -0.0 0.0 -0.0 -0.0 -7.18087 5.633523 -53.581742 8.784862 2.451204 53.7472 0.0 -0.0 -0.0 0.0 -0.0 -0.0 -142.973735 39.431617 147.390037 -151.980852 -2.335175 170.955575 11.412418 9.227559 -1.498477 -13.289973 37.43742 3.180886 -178.927535 -16.453687 89.421826 117.619732 -65.74076 88.879667 -43.648276 38.803952 34.059571 -4.356434 11.441172 -8.250913 -0.219913 0.63841 0.122732 179.494102 -44.05448 142.59053 -145.121957 1.974539 -179.748654 -146.348134 14.250813 179.484465 1.482059 4.003653 1.360876 18.484277 61.804955 9.107313 142.973735 39.431617 -147.390037 151.980852 -2.335175 -170.955575 -11.412418 9.227559 1.498477 13.289973 37.43742 -3.180886 166.507444 -4.180734 -89.761528 42.2193 -20.000955 -9.856499 166.821797 -43.973781 -122.061691 -1.941281 30.577466 -4.647661 0.057679 0.167876 -0.032027 -16.712232 -46.29596 -0.689603 75.673382 -72.116249 92.828895 155.09366 -29.390598 -168.678214 160.128566 66.422856 151.109474 -40.019633 73.722108 5.552078 -0.0 0.0 -0.0 -0.0 -0.0 -0.0 7.397073 5.294191 87.407088 -7.195241 -9.781554 -92.65013 -0.0 0.0 -0.0 -0.0 -0.0 -0.0 -7.507689 6.266531 -95.937971 63.789946 85.973743 11.073513
13.5848 84.3898 39.5891 0.0 -0.0 -0.0 -0.0 -4.771896 -180.0 0.0 -4.771896 -180.0 -3.941986 17.932259 -132.771391 10.667824 15.013811 131.983833 0.0 0.0 0.0 0.0 0.0 0.0 -159.220516 -48.028485 170.415257 38.488046 -53.896579 31.573682 8.200055 4.967343 -33.819619 174.054796 -6.394506 144.901135 83.25393 -50.258079 33.616048 -159.136059 -28.074375 127.365936 60.461659 -70.523647 15.71111 4.938479 13.231547 7.608576 -82.840589 61.110826 74.532293 -15.337247 43.370887 10.753295 -0.000473 -0.060845 -0.019116 -165.702838 -0.592378 171.838043 -145.173549 12.06758 -141.82295 -137.990279 -6.559875 -136.393688 142.973735 39.431617 -147.390037 -93.845266 -84.971042 -68.195843 9.606993 -1.303114 8.067575 -15.878707 -39.914891 -7.252595 -83.25393 -50.258079 -33.616048 136.536492 17.859596 -101.097401 52.700088 41.369493 -42.087033 -177.425273 -40.424422 -118.43817 -6.908911 -21.623998 2.809719 166.306187 -4.545593 -142.077499 -0.004873 1.771387 -0.556475 3.34078 29.380309 -4.294391 152.200278 37.330087 147.582714 -18.654356 41.178636 -4.611497 -0.0 0.0 -0.0 -0.0 -2.27635 -180.0 -4.290492 -3.125281 -141.341617 -76.172441 30.166103 11.170402 -0.0 0.0 -0.0 -0.0 -2.27635 -180.0 6.828107 -5.816233 108.878838 145.211484 -73.077799 -113.17892
